<svg width="57" height="57" viewBox="0 0 57 57" fill="none" xmlns="http://www.w3.org/2000/svg">
<path fill-rule="evenodd" clip-rule="evenodd" d="M28.4521 56.3949C12.7636 56.3949 -0.000148773 43.7454 -0.000148773 28.1974C-0.000148773 12.6493 12.7636 0 28.4521 0C44.1407 0 56.9043 12.6493 56.9043 28.1974C56.9043 43.7454 44.1407 56.3949 28.4521 56.3949ZM28.4521 3.6514C14.7949 3.6514 3.68437 14.6632 3.68437 28.1974C3.68437 41.7317 14.7949 52.7433 28.4521 52.7433C42.1092 52.7433 53.2199 41.7317 53.2199 28.1974C53.2199 14.6632 42.1092 3.6514 28.4521 3.6514ZM42.2687 31.7004H23.5711C23.5711 31.7004 28.1036 36.1929 30.9112 38.9742C32.1098 40.1627 32.1098 42.0895 30.9112 43.278C30.7134 43.474 30.5133 43.6717 30.3155 43.8677C29.1169 45.0563 27.1727 45.0563 25.9733 43.8677C22.2987 40.2266 15.0065 32.999 12.4641 30.4789C11.8881 29.9087 11.5646 29.1346 11.5646 28.3276V28.0671C11.5646 27.2608 11.8881 26.4867 12.4641 25.9158C15.0065 23.3962 22.2987 16.1688 25.9733 12.5275C27.1727 11.339 29.1169 11.339 30.3155 12.5275C30.5133 12.7229 30.7134 12.922 30.9112 13.1172C32.1098 14.3059 32.1098 16.2321 30.9112 17.4206C28.1036 20.2024 23.5711 24.6949 23.5711 24.6949H42.2687C43.9647 24.6949 45.3391 26.0576 45.3391 27.7379V28.6575C45.3391 30.3384 43.9647 31.7004 42.2687 31.7004Z" fill="#F1682B"/>
</svg>
