<svg width="40" height="40" viewBox="0 0 40 40" fill="none" xmlns="http://www.w3.org/2000/svg">
<path fill-rule="evenodd" clip-rule="evenodd" d="M25.0319 15.5636C25.0319 15.5641 25.0319 15.5643 25.0319 15.5648C25.0321 15.567 25.0328 15.5684 25.0328 15.5709V15.5682C25.0453 15.6745 25.1186 15.7473 25.1994 15.8011C25.3088 15.8739 25.4443 15.8925 25.5681 15.8701C25.6791 15.8518 25.7817 15.7909 25.8633 15.7077C25.9181 15.6523 25.9653 15.5774 25.9863 15.4989C26.0056 15.4277 26.0015 15.377 25.9922 15.3056C25.9863 15.2624 25.9669 15.2235 25.95 15.1846C25.9164 15.1063 25.8439 15.0534 25.7809 15.0073C25.7582 14.9907 25.7337 14.9776 25.7094 14.9656C25.6647 14.9437 25.6219 14.9222 25.5747 14.9093C25.5226 14.8937 25.4678 14.8892 25.414 14.8824C25.3971 14.8799 25.3811 14.879 25.3644 14.879C25.3022 14.879 25.2381 14.8926 25.1792 14.9075C25.1489 14.915 25.1195 14.9252 25.09 14.9362C25.0655 14.9455 25.0453 14.9543 25.0272 14.9641C25.0187 15.1075 25.0101 15.2506 25 15.3945C25.013 15.4474 25.0183 15.5017 25.0175 15.5568C25.0222 15.5591 25.0272 15.5614 25.0319 15.5636" fill="#F1682B"/>
<path fill-rule="evenodd" clip-rule="evenodd" d="M25.9049 17.0602C25.8669 16.9939 25.8204 16.9456 25.7628 16.9157C25.7123 16.8903 25.6572 16.879 25.6029 16.879C25.598 16.879 25.5932 16.8793 25.5883 16.8793C25.5224 16.8824 25.4557 16.8879 25.3889 16.8932C25.3594 16.8953 25.33 16.8976 25.2996 16.8987C25.2835 16.8997 25.2679 16.8997 25.2523 16.8997C25.2314 16.8987 25.2105 16.8987 25.1902 16.8997C25.1097 16.906 25.0367 16.965 25.0149 17.0796C25.0066 17.1244 25.0083 17.1632 25.0162 17.2017C25.0111 17.2385 25.01 17.2767 25.0071 17.3132C25.0033 17.3593 25.001 17.4062 25.0001 17.4534C24.9993 17.4865 25.0033 17.5187 25.0064 17.5507C25.0119 17.5958 25.0235 17.6354 25.0367 17.6773C25.0493 17.7166 25.0776 17.7421 25.1083 17.7531C25.1152 17.7762 25.1254 17.7979 25.1391 17.8131C25.1731 17.8509 25.2128 17.8538 25.2555 17.8582C25.3028 17.8627 25.3501 17.8616 25.3974 17.8645C25.3934 17.864 25.3892 17.8632 25.3849 17.8621C25.5055 17.8857 25.6303 17.8844 25.7505 17.8593C25.7822 17.8527 25.8141 17.8294 25.842 17.8079C25.8692 17.7874 25.8925 17.7565 25.9119 17.7232C25.9544 17.6537 25.9841 17.5638 25.9949 17.4726C26.0065 17.375 25.9987 17.2799 25.9677 17.19C25.9506 17.1417 25.9282 17.1021 25.9049 17.0602" fill="#F1682B"/>
<mask id="mask0" mask-type="alpha" maskUnits="userSpaceOnUse" x="2" y="1" width="36" height="39">
<path fill-rule="evenodd" clip-rule="evenodd" d="M2 1H37.9118V39.879H2V1Z" fill="white"/>
</mask>
<g mask="url(#mask0)">
<path fill-rule="evenodd" clip-rule="evenodd" d="M27.1792 17.6546C27.1622 17.7714 27.1354 17.9237 27.0788 18.0666C27.0458 18.1348 27.0024 18.2031 26.9426 18.2813C26.887 18.3464 26.8292 18.4026 26.7666 18.4531C26.6598 18.5313 26.573 18.5849 26.485 18.6272C26.438 18.6438 26.3908 18.6557 26.3402 18.6645C26.2964 18.6691 26.2526 18.673 26.2086 18.6767C26.1574 18.6812 26.1062 18.6855 26.0552 18.6916C25.9894 18.6998 25.9242 18.7003 25.8586 18.7003L25.8258 18.7023V18.7001C25.8004 18.6994 25.7752 18.6994 25.7498 18.6994C25.6922 18.7003 25.6344 18.7033 25.5764 18.7062C25.5348 18.7079 25.4932 18.7101 25.4516 18.7115C25.3362 18.7161 25.2226 18.7274 25.1082 18.7401C25.0392 18.7483 24.9698 18.7514 24.9 18.7514C24.7962 18.7514 24.6922 18.7446 24.5886 18.738C24.5396 18.7347 24.4906 18.7313 24.4418 18.729C24.241 18.7191 24.027 18.7074 23.8112 18.682L23.7718 18.6754C23.6756 18.6596 23.576 18.643 23.4756 18.643L23.4416 18.6436L23.3956 18.6461C23.3476 18.6487 23.2998 18.651 23.2512 18.651C23.1786 18.65 23.1208 18.6436 23.0636 18.6374L22.9044 18.6175L22.7368 18.5968L22.6144 18.5753C22.5858 18.5705 22.5572 18.5666 22.5284 18.5625L22.5204 18.5131C22.512 18.4168 22.5208 18.3176 22.5294 18.2216C22.541 18.099 22.5462 17.987 22.5482 17.8404C22.5524 17.5807 22.554 17.3217 22.549 17.0621C22.5482 17.0031 22.5482 16.945 22.5532 16.8868C22.5556 16.8517 22.5606 16.8163 22.5658 16.7812C22.5692 16.7574 22.5726 16.7338 22.5752 16.7102C22.588 16.6045 22.5954 16.4988 22.6028 16.3925L22.6086 16.3079L22.6194 16.1519C22.624 16.0838 22.6286 16.016 22.634 15.9477C22.6428 15.8239 22.64 15.7034 22.6356 15.57C22.6324 15.4758 22.6418 15.3836 22.6528 15.2978C22.6692 15.1806 22.683 15.0644 22.692 14.9464L22.695 14.907C22.7022 14.815 22.7092 14.7231 22.7206 14.6311C22.7358 14.5303 22.7614 14.4322 22.799 14.3312C22.8062 14.3154 22.8144 14.2996 22.8234 14.2846C22.888 14.2965 22.9518 14.3093 23.0164 14.3228C23.038 14.3275 23.0614 14.33 23.0838 14.33C23.179 14.33 23.2648 14.2867 23.3134 14.2144L23.3554 14.2081C23.4096 14.2025 23.4634 14.1988 23.5176 14.1988C23.552 14.1988 23.5866 14.2003 23.6212 14.2034C23.6634 14.2073 23.7054 14.2124 23.7472 14.2173C23.8126 14.2249 23.8776 14.2325 23.9432 14.237C23.998 14.2409 24.053 14.2419 24.108 14.2419L24.1904 14.2413L24.2726 14.2409C24.3692 14.2409 24.4704 14.2471 24.591 14.2608C24.6644 14.2711 24.738 14.2826 24.8116 14.2941L24.9586 14.3165C25.0764 14.3327 25.195 14.3435 25.3134 14.354L25.4662 14.3682C25.5052 14.3747 25.5426 14.3819 25.582 14.3899C25.6182 14.3977 25.6534 14.4111 25.6884 14.4248C25.714 14.4343 25.7394 14.4441 25.7656 14.4519C25.8658 14.4811 25.9728 14.4926 26.0762 14.5037L26.1132 14.5076C26.2 14.5217 26.2908 14.5457 26.3906 14.5808C26.4752 14.6172 26.5646 14.657 26.6442 14.7091C26.6674 14.7301 26.6904 14.7532 26.7116 14.7771C26.747 14.8288 26.7794 14.8859 26.81 14.9519C26.8322 15.009 26.8484 15.0702 26.8598 15.1394C26.8828 15.3403 26.882 15.5351 26.8574 15.7346C26.8478 15.7907 26.835 15.8403 26.8182 15.8865C26.7924 15.9407 26.763 15.9902 26.7286 16.038C26.6894 16.0838 26.6438 16.1281 26.5934 16.169C26.5626 16.1895 26.5298 16.2071 26.4958 16.2229C26.4544 16.2428 26.4086 16.2693 26.3828 16.3163C26.3704 16.3381 26.3322 16.4147 26.359 16.4812C26.3754 16.5232 26.391 16.5489 26.4232 16.5869C26.482 16.6581 26.5712 16.6862 26.6576 16.7137L26.6872 16.723C26.7434 16.7414 26.7982 16.7628 26.853 16.7843C26.8822 16.7977 26.9114 16.8114 26.9392 16.8289C26.9486 16.8373 26.9584 16.8467 26.9682 16.857C27.024 16.9295 27.0874 17.015 27.1336 17.1076C27.1548 17.1634 27.17 17.222 27.1818 17.2919C27.1948 17.4141 27.194 17.5329 27.1792 17.6546V17.6546ZM21.236 18.2704C21.2174 18.3646 21.1878 18.4599 21.1406 18.5796C21.1178 18.6268 21.092 18.6719 21.066 18.7169C21.0452 18.7534 21.0242 18.7897 21.005 18.8273L20.9694 18.8957C20.9338 18.9653 20.897 19.0373 20.8506 19.1036C20.8272 19.1293 20.802 19.1549 20.775 19.1773C20.712 19.2208 20.6582 19.2578 20.6138 19.3048L20.5808 19.3399C20.5456 19.3776 20.51 19.4154 20.4704 19.4488C20.3546 19.5305 20.2624 19.5849 20.1708 19.6252C20.0482 19.6763 19.9368 19.7206 19.8176 19.7463C19.65 19.7832 19.4842 19.8105 19.3584 19.83C19.2752 19.8403 19.1926 19.8506 19.1102 19.8618C19.0546 19.867 18.999 19.8692 18.9432 19.8692C18.8308 19.8692 18.7182 19.8606 18.6056 19.8514C18.5154 19.844 18.425 19.8386 18.334 19.8386L18.2218 19.8391C18.1648 19.8391 18.1078 19.8382 18.0508 19.8349C17.9506 19.8189 17.85 19.7988 17.7504 19.7791C17.695 19.768 17.64 19.7547 17.5848 19.7414C17.5206 19.726 17.456 19.7104 17.391 19.6984C17.2272 19.6681 17.0582 19.6607 16.8948 19.6535C16.7854 19.6486 16.676 19.6438 16.5672 19.6324C16.4706 19.6159 16.3728 19.5999 16.2744 19.5862C16.216 19.5775 16.1768 19.571 16.137 19.5599C16.1132 19.5466 16.0894 19.5326 16.0654 19.5184L16.0132 19.4876C15.9786 19.4675 15.9426 19.4493 15.9068 19.4314C15.8836 19.4199 15.8604 19.4082 15.8376 19.3961L15.7846 19.3659C15.7592 19.3511 15.7336 19.3364 15.7076 19.3228C15.672 19.3041 15.6454 19.29 15.6194 19.2734L15.6068 19.258L15.6074 19.2516C15.5966 19.1237 15.61 18.9946 15.6228 18.8698C15.6312 18.783 15.642 18.6966 15.653 18.6101C15.6604 18.5521 15.6678 18.494 15.6744 18.4357C15.6908 18.2938 15.7062 18.152 15.7144 18.01C15.7218 17.8772 15.7292 17.7458 15.743 17.6136C15.752 17.5627 15.7626 17.512 15.7772 17.4619C15.788 17.4516 15.7996 17.4403 15.8118 17.4301C15.827 17.4208 15.8416 17.412 15.8578 17.4042C15.8844 17.3962 15.9114 17.3892 15.939 17.3835C15.958 17.3825 15.977 17.3819 15.996 17.3819L16.0308 17.3827C16.084 17.3952 16.1338 17.4147 16.1858 17.4348C16.1852 17.4344 16.1846 17.4342 16.184 17.4338C16.1956 17.4387 16.2074 17.4432 16.219 17.4477L16.2876 17.475C16.3122 17.4865 16.3352 17.5001 16.3586 17.514L16.391 17.5331C16.4234 17.552 16.4562 17.5691 16.489 17.5865L16.5324 17.6097C16.6498 17.6713 16.7772 17.717 16.9456 17.7579L17.1312 17.8045L17.3172 17.8511C17.43 17.8786 17.546 17.8837 17.6582 17.8886L17.7434 17.8927C17.7724 17.8983 17.8012 17.9057 17.8302 17.9129L17.886 17.9268C17.9778 17.9494 18.076 17.9613 18.1702 17.9613C18.2708 17.9591 18.3798 17.9547 18.4882 17.9371C18.5266 17.9313 18.5646 17.9239 18.6026 17.9164C18.6416 17.9088 18.6806 17.901 18.7202 17.895L18.7194 17.8948C18.7626 17.8895 18.8066 17.8847 18.8498 17.8839C18.9322 17.8823 19.0116 17.8336 19.0522 17.7597C19.0904 17.6904 19.088 17.6136 19.046 17.5493C19.0224 17.5124 18.9994 17.4919 18.9696 17.4709L18.923 17.4311C18.873 17.3896 18.8172 17.3554 18.7478 17.3233C18.667 17.2854 18.5864 17.2595 18.501 17.2318L18.406 17.2004L18.3848 17.1932C18.2918 17.1618 18.2042 17.1318 18.1084 17.1119C18.067 17.1031 18.025 17.0961 17.9828 17.0889C17.908 17.0762 17.8304 17.0633 17.758 17.0403C17.6748 16.9997 17.5944 16.9547 17.5136 16.9099L17.4332 16.865C17.3664 16.8283 17.2956 16.7979 17.2254 16.7681C17.1624 16.741 17.11 16.7127 17.0578 16.6842L16.9862 16.646L16.9124 16.6096C16.8674 16.5875 16.8224 16.5655 16.7788 16.5409C16.7342 16.516 16.6932 16.4869 16.6518 16.4575L16.6212 16.4358C16.5502 16.3847 16.4692 16.3494 16.391 16.3151C16.3288 16.2876 16.2644 16.2595 16.206 16.2238C16.1298 16.1607 16.0576 16.0909 15.9916 16.0173C15.964 15.9776 15.9396 15.937 15.9184 15.8943L15.8834 15.8077C15.8534 15.733 15.8232 15.6587 15.7902 15.5852C15.7634 15.5255 15.7346 15.4674 15.7056 15.4093L15.6626 15.3222C15.6458 15.2746 15.6318 15.227 15.6212 15.1769C15.6132 15.0809 15.616 14.9782 15.6302 14.8542C15.6406 14.782 15.6496 14.7097 15.6586 14.6373L15.6678 14.5648C15.6942 14.4277 15.7442 14.2935 15.7944 14.1687C15.849 14.0584 15.918 13.9472 16.0048 13.8298C16.1156 13.6978 16.2266 13.5878 16.3444 13.4931C16.483 13.395 16.6264 13.315 16.7826 13.2489C16.9802 13.1735 17.1966 13.1064 17.4442 13.0442C17.7176 12.9734 17.9458 12.9258 18.1622 12.8946C18.2842 12.8812 18.4072 12.8743 18.5278 12.8743C18.6272 12.8743 18.7264 12.8792 18.8226 12.8882C18.9152 12.9038 19.0016 12.9276 19.0738 12.9486C19.1396 12.9683 19.2034 12.9948 19.267 13.0216C19.299 13.0352 19.3308 13.0485 19.363 13.0607C19.4748 13.1036 19.568 13.1319 19.6566 13.1493C19.6986 13.1579 19.7412 13.1651 19.7838 13.1721C19.8756 13.1871 19.9704 13.2027 20.0576 13.2337C20.2144 13.3024 20.35 13.3796 20.472 13.4701C20.4836 13.479 20.4942 13.487 20.504 13.4933C20.5112 13.5061 20.52 13.519 20.529 13.5317C20.5394 13.5471 20.55 13.5623 20.5588 13.5787C20.5916 13.6381 20.6202 13.7003 20.6486 13.7626C20.6708 13.8142 20.6928 13.8643 20.7182 13.9147L20.7374 13.9531L20.7566 13.9911C20.7802 14.056 20.7952 14.1079 20.8046 14.1586C20.8126 14.2518 20.8148 14.3454 20.8168 14.4392C20.8182 14.4983 20.8196 14.5576 20.8226 14.6165C20.8246 14.6609 20.8276 14.7058 20.8306 14.7508C20.8388 14.8772 20.8474 15.0078 20.8372 15.1357C20.8284 15.1839 20.8184 15.2325 20.8038 15.2793C20.7896 15.2787 20.774 15.2787 20.7584 15.2779L20.6708 15.2623C20.5964 15.2488 20.5222 15.2356 20.4464 15.2288C20.4292 15.2272 20.4122 15.2268 20.395 15.2268C20.367 15.2268 20.3392 15.2282 20.3116 15.2293L20.2744 15.2315C20.2522 15.2329 20.2302 15.2342 20.2078 15.2342C20.1498 15.194 20.0942 15.1634 20.0346 15.1381C19.9848 15.1162 19.9352 15.0964 19.8852 15.0761L19.8254 15.0519C19.7854 15.0343 19.7454 15.0154 19.707 14.9946C19.6862 14.9836 19.666 14.9714 19.6458 14.9593C19.619 14.9431 19.5922 14.9269 19.564 14.9132C19.431 14.8495 19.2814 14.8331 19.1366 14.8173L19.1026 14.8136L19.0244 14.8019C18.9722 14.7939 18.92 14.7859 18.8672 14.7801C18.8296 14.7754 18.7916 14.773 18.7536 14.7705L18.7086 14.7672L18.6446 14.7543C18.5874 14.742 18.5302 14.7299 18.47 14.7259C18.4514 14.7245 18.4326 14.7237 18.4136 14.7237C18.2766 14.7237 18.1544 14.7643 18.0698 14.838C18.041 14.8622 18.0214 14.8869 18.0096 14.9134C17.981 14.962 17.9662 15.0154 17.9652 15.0722C17.9686 15.1026 17.9726 15.132 17.9784 15.1617C17.9968 15.2627 18.0944 15.3477 18.183 15.3871C18.2424 15.4138 18.3036 15.4362 18.3648 15.4587L18.4438 15.4883C18.487 15.5072 18.531 15.5273 18.5744 15.5488C18.5972 15.5605 18.6198 15.5731 18.6424 15.5858C18.6722 15.6028 18.7022 15.6193 18.7328 15.634C18.829 15.6788 18.9084 15.7087 18.9824 15.7282L19.0424 15.7438C19.0882 15.7556 19.1336 15.7673 19.1792 15.7808C19.2208 15.7929 19.2616 15.8062 19.3022 15.8194C19.3828 15.8455 19.4626 15.8713 19.5462 15.8898C19.6754 15.9185 19.8094 15.9337 19.9392 15.9485C20.016 15.9596 20.0862 15.9696 20.1578 15.9719L20.181 15.9723C20.2178 15.9723 20.2548 15.9694 20.2914 15.9647C20.2966 15.9678 20.3032 15.9717 20.3096 15.9756L20.3392 15.993C20.4438 16.0534 20.5518 16.116 20.6518 16.1868C20.7078 16.2328 20.763 16.2872 20.8254 16.3584L20.841 16.373L20.8392 16.3744C20.8524 16.391 20.8654 16.4083 20.8784 16.4266C20.9188 16.4816 20.9556 16.5456 20.9876 16.6168C21.0666 16.8044 21.1188 16.9606 21.1518 17.1088C21.1646 17.1659 21.1758 17.2234 21.187 17.2811L21.2034 17.3636L21.2154 17.4221C21.2274 17.4787 21.2394 17.5356 21.249 17.5931C21.27 17.8047 21.2656 18.0325 21.236 18.2704V18.2704ZM14.4382 18.8756L14.434 18.9355C14.429 19.0014 14.4272 19.0677 14.4256 19.134L14.4242 19.1906C14.4216 19.3202 14.4206 19.4497 14.4196 19.5794L14.4184 19.7093C14.4168 19.8588 14.4068 20.0141 14.3874 20.1839C14.3788 20.2354 14.3698 20.2888 14.3508 20.3403L14.271 20.4466L14.2408 20.4856C14.2188 20.5101 14.196 20.5331 14.1708 20.5546C14.1126 20.5963 14.0506 20.6344 13.9892 20.6724L13.9316 20.7081L13.8644 20.7512C13.8074 20.788 13.7506 20.8249 13.6884 20.8545C13.5746 20.8945 13.4468 20.9243 13.2862 20.9477C13.2128 20.9555 13.1392 20.9608 13.0658 20.9659L13.0216 20.9692C12.9046 20.9779 12.7902 20.9914 12.675 21.0064C12.5624 21.0201 12.4512 21.0327 12.3394 21.0386C12.3116 21.04 12.2836 21.0405 12.2558 21.0405C12.166 21.0405 12.0764 21.0337 11.9868 21.0265C11.7896 21.0119 11.592 21.0015 11.395 20.9912L11.3068 20.9867C11.1826 20.9803 11.0584 20.9754 10.9342 20.9731L10.8828 20.9717C10.8164 20.9698 10.7498 20.9678 10.6836 20.9678C10.6472 20.9678 10.6108 20.9684 10.5746 20.9699C10.4586 20.9742 10.3366 20.9844 10.201 21.001C10.1438 21.0082 10.0868 21.0138 10.0294 21.0177C10.0092 21.0191 9.98865 21.0197 9.96825 21.0197C9.92705 21.0197 9.88565 21.0173 9.84445 21.0152C9.81585 21.0144 9.78725 21.0123 9.75865 21.0097C9.64485 20.9891 9.53925 20.9524 9.44225 20.9159C9.38985 20.8943 9.33765 20.8728 9.28365 20.8545C9.24665 20.8418 9.20705 20.834 9.16805 20.8266L9.13225 20.8192C9.00705 20.7941 8.87685 20.7728 8.73405 20.7551C8.59425 20.7301 8.43205 20.6995 8.27125 20.6513C8.21625 20.6349 8.16025 20.6217 8.10425 20.6082C8.07045 20.6002 8.03665 20.5922 8.00325 20.5837C7.93705 20.5661 7.87425 20.5454 7.81145 20.5222C7.77645 20.5041 7.74145 20.486 7.70965 20.4635L7.65345 20.4173C7.58745 20.3629 7.51925 20.3066 7.44565 20.2603C7.41585 20.2422 7.38565 20.2245 7.35565 20.2067C7.30325 20.1761 7.25085 20.1453 7.20065 20.1116C7.05305 19.991 6.92625 19.8505 6.82185 19.7288C6.74645 19.6211 6.68365 19.5024 6.62285 19.3873C6.59665 19.3378 6.57065 19.2885 6.54345 19.2399C6.46065 19.0939 6.36525 18.9232 6.28305 18.7454C6.25085 18.665 6.21825 18.5781 6.19805 18.4884C6.18465 18.4334 6.17625 18.3774 6.16765 18.3211L6.16225 18.2846C6.14685 18.1639 6.13245 18.0434 6.11785 17.9225L6.09845 17.763C6.07505 17.5828 6.04685 17.4048 6.01845 17.2258L6.00525 17.1423C5.99345 17.0282 5.99925 16.9097 6.00485 16.795L6.00865 16.7141C6.01425 16.5762 6.02005 16.4337 6.03725 16.2942L6.04545 16.225C6.05925 16.1078 6.07325 15.9906 6.08125 15.8728C6.08505 15.8184 6.08765 15.7642 6.09045 15.7098C6.09405 15.6353 6.09765 15.5605 6.10425 15.4858C6.13145 15.3187 6.16565 15.1726 6.20865 15.0392C6.25845 14.8809 6.31005 14.7173 6.37045 14.5597C6.41365 14.4644 6.46205 14.362 6.52305 14.2629C6.59245 14.1498 6.66525 14.0385 6.74185 13.9293C6.87685 13.7341 7.02445 13.5422 7.16705 13.3568L7.18805 13.3295C7.24925 13.254 7.31045 13.1783 7.37905 13.1114C7.44545 13.0467 7.51985 12.988 7.59185 12.9311L7.62085 12.9085C7.67185 12.8679 7.72025 12.8242 7.76865 12.7807C7.79925 12.753 7.82965 12.7257 7.86105 12.6988L7.88885 12.675C7.95885 12.6152 8.02925 12.5551 8.10205 12.4974C8.14525 12.4666 8.18925 12.4362 8.23585 12.4085C8.28565 12.3786 8.33865 12.3547 8.39145 12.3309L8.41205 12.3215C8.53125 12.2665 8.65225 12.2148 8.77305 12.1639C8.77225 12.1641 8.77125 12.1641 8.77045 12.1643C8.84725 12.1331 8.92645 12.1013 9.00745 12.0787C9.11445 12.0477 9.22305 12.0327 9.34365 12.0175C9.46985 11.999 9.60045 11.9734 9.73125 11.9477C9.83085 11.9284 9.93045 11.9087 10.0308 11.8923C10.1624 11.8703 10.2728 11.8517 10.3832 11.8254L10.4714 11.8034C10.553 11.7829 10.6344 11.7622 10.7172 11.7466C10.7458 11.7443 10.7742 11.7433 10.8026 11.7433C10.8338 11.7433 10.8648 11.7445 10.8964 11.7466L10.9486 11.7503C10.9938 11.7537 11.0388 11.757 11.0836 11.757H11.1042C11.2496 11.7525 11.396 11.7307 11.5376 11.7096L11.5718 11.7043C11.6904 11.6907 11.811 11.686 11.9236 11.6829C12.0224 11.6803 12.1212 11.6782 12.22 11.6782L12.3158 11.6788C12.556 11.6835 12.8066 11.7012 13.0606 11.7314C13.1602 11.7484 13.2558 11.7737 13.3528 11.7993L13.3888 11.8087C13.503 11.84 13.6144 11.8767 13.7294 11.921C13.8552 11.9781 13.9678 12.054 14.0614 12.1207C14.0824 12.138 14.1028 12.1556 14.1208 12.1753C14.145 12.2084 14.1662 12.2427 14.185 12.2794C14.198 12.3155 14.2068 12.3521 14.2134 12.3901C14.2374 12.6208 14.2298 12.8776 14.1906 13.175C14.173 13.2977 14.1568 13.4205 14.1408 13.5438L14.1022 13.8316L14.1114 13.7992C14.0918 13.9057 14.0728 14.0112 14.0538 14.1178L14.05 14.1389C14.0278 14.2658 14.0092 14.3731 13.9684 14.4803C13.9546 14.5088 13.9398 14.5367 13.9236 14.5644C13.9104 14.5732 13.9006 14.5788 13.891 14.5835C13.8542 14.5977 13.8182 14.6122 13.7838 14.6313C13.7444 14.6537 13.7182 14.6685 13.6916 14.6816C13.679 14.6853 13.6658 14.6894 13.6528 14.6925L13.6276 14.6929C13.6156 14.6929 13.6034 14.6927 13.5914 14.6917C13.558 14.6847 13.525 14.6757 13.492 14.6668C13.4688 14.6605 13.4458 14.6543 13.4226 14.6486C13.329 14.6278 13.2332 14.6248 13.1516 14.6248C13.008 14.6248 12.8618 14.6083 12.7246 14.5913C12.67 14.5833 12.6162 14.573 12.563 14.5595C12.5378 14.5531 12.5132 14.5453 12.4888 14.5373C12.4642 14.5293 12.4398 14.5213 12.4144 14.5149C12.2996 14.4854 12.178 14.4753 12.0606 14.4655L12.021 14.4622L11.961 14.4569C11.8608 14.448 11.7606 14.439 11.6606 14.4384L11.5732 14.438C11.479 14.438 11.3846 14.4392 11.2904 14.4413C11.1486 14.4445 11.0048 14.4571 10.8504 14.4798C10.7694 14.4915 10.6882 14.5119 10.6082 14.5318L10.5218 14.5531C10.3838 14.586 10.2556 14.6315 10.1406 14.6886C10.0992 14.7095 10.061 14.7366 10.023 14.7633C9.94665 14.8179 9.88625 14.862 9.83225 14.9113C9.75165 14.9831 9.68425 15.0704 9.61925 15.1549L9.60405 15.1744L9.58005 15.2052C9.52745 15.273 9.47485 15.3407 9.42665 15.4119C9.36785 15.4981 9.32725 15.5961 9.28805 15.6909L9.27285 15.7278C9.24005 15.8065 9.21065 15.8857 9.18525 15.9662C9.14725 16.0889 9.12305 16.2016 9.11165 16.3106C9.09725 16.4448 9.11905 16.5785 9.14025 16.7082L9.14525 16.739C9.15925 16.8227 9.18145 16.9091 9.21485 17.0101C9.24365 17.0986 9.28265 17.1842 9.32025 17.2671L9.33585 17.3012L9.39225 17.4385L9.43945 17.5535C9.46725 17.6189 9.49585 17.6844 9.53105 17.7466C9.55645 17.7913 9.58605 17.8328 9.61705 17.8735C9.61765 17.8743 9.62585 17.8835 9.62725 17.8835V17.8835L9.62745 17.8833C9.62865 17.8833 9.63505 17.8903 9.63525 17.8903C9.67285 17.9432 9.71245 17.9905 9.75785 18.0354C9.80885 18.0853 9.87425 18.1339 9.95765 18.184L9.99985 18.2087C10.0476 18.2366 10.0952 18.2645 10.1412 18.2945C10.1752 18.3164 10.2084 18.3394 10.2414 18.3622L10.3162 18.4133C10.439 18.4933 10.5792 18.5537 10.722 18.5888C10.8318 18.6149 10.9458 18.6274 11.0562 18.6397L11.1014 18.6446L11.1568 18.6561C11.2086 18.6672 11.2626 18.6789 11.3176 18.6789L11.3428 18.6781C11.3904 18.6752 11.4306 18.6688 11.4658 18.658C11.5106 18.6442 11.5708 18.6149 11.5976 18.5833C11.621 18.5558 11.6456 18.5276 11.6616 18.4921C11.6748 18.4619 11.687 18.433 11.6976 18.4028L11.7206 18.3433C11.7394 18.2949 11.7584 18.2468 11.7712 18.1969C11.7926 18.114 11.8052 18.0223 11.8088 17.924C11.8114 17.8304 11.8084 17.7367 11.8052 17.6429C11.8032 17.5857 11.8012 17.5286 11.8006 17.4716C11.8 17.403 11.7966 17.3344 11.79 17.2667C11.7834 17.2051 11.7746 17.1446 11.7648 17.084C11.7606 17.0592 11.7542 17.0343 11.748 17.0093L11.737 16.9637C11.733 16.9091 11.733 16.8535 11.737 16.7977C11.7484 16.7287 11.7636 16.6673 11.7834 16.6103C11.8004 16.5787 11.8216 16.5485 11.8436 16.5193C11.8664 16.4931 11.8908 16.4684 11.9168 16.4454C11.9252 16.4399 11.934 16.4348 11.943 16.43C12.0564 16.3888 12.199 16.3426 12.3472 16.3208L12.4292 16.3098C12.4754 16.3038 12.5218 16.2979 12.567 16.289C12.5964 16.2831 12.6252 16.2761 12.654 16.2691C12.6912 16.2601 12.7282 16.2511 12.7664 16.2445C12.7968 16.2416 12.827 16.2402 12.8572 16.2402C12.9098 16.2402 12.962 16.2443 13.015 16.2508C13.0688 16.2589 13.123 16.2656 13.1782 16.2656L13.2032 16.2652C13.2422 16.2638 13.2806 16.2599 13.3194 16.2556L13.3448 16.2531C13.429 16.2771 13.5164 16.2808 13.6008 16.2847C13.6294 16.2857 13.6582 16.287 13.6866 16.289C13.7376 16.2974 13.7836 16.305 13.8312 16.3091C13.848 16.3104 13.864 16.3112 13.8798 16.3112C13.9282 16.3112 13.974 16.3046 14.027 16.2962C14.0582 16.2917 14.089 16.2823 14.1216 16.2673C14.144 16.2823 14.1684 16.2974 14.1922 16.3141C14.2018 16.3227 14.2116 16.3315 14.2204 16.341C14.2284 16.3533 14.2366 16.3668 14.2438 16.3804C14.2518 16.4062 14.2584 16.4331 14.2632 16.4602C14.2714 16.5317 14.278 16.6033 14.2844 16.6753C14.2934 16.7708 14.3066 16.8648 14.3196 16.9588C14.3504 17.2 14.3644 17.3958 14.3636 17.5752C14.3636 17.6314 14.3626 17.6871 14.3616 17.7431C14.3606 17.7991 14.3596 17.855 14.3596 17.9112C14.3588 17.9944 14.3716 18.0783 14.3838 18.1592L14.389 18.1945C14.4106 18.3583 14.433 18.528 14.4438 18.6978C14.4474 18.7571 14.4428 18.8164 14.4382 18.8756V18.8756ZM4.64105 27.233C4.57445 27.2378 4.52505 27.2411 4.47805 27.2544C4.43345 27.2673 4.39225 27.2879 4.35105 27.309L4.31105 27.3287C4.29585 27.3336 4.27965 27.3373 4.26325 27.3406C4.18845 27.3486 4.11325 27.3548 4.03745 27.3582C3.99325 27.3597 3.94905 27.3599 3.90465 27.3599C3.86025 27.3601 3.81605 27.3603 3.77185 27.3621L3.71485 27.363L3.63745 27.3621L3.58565 27.3617L3.53485 27.3613L3.47685 27.3622L3.39105 27.3634C3.36845 27.3634 3.34565 27.363 3.32265 27.3621C3.29685 27.3574 3.27085 27.3502 3.24385 27.3424C3.20825 27.3248 3.17325 27.3057 3.13885 27.2852C3.13265 27.1885 3.13065 27.0904 3.12845 26.9927L3.12765 26.9553C3.12425 26.8172 3.12645 26.6887 3.13425 26.5629C3.13625 26.5218 3.14005 26.4808 3.14365 26.4401L3.15045 26.3605C3.15625 26.2878 3.15545 26.2145 3.15465 26.1419C3.15465 26.0594 3.15305 25.9764 3.15145 25.8933L3.14905 25.7445C3.14645 25.468 3.14245 25.1923 3.13105 24.9175C3.11865 24.6114 3.09725 24.3163 3.07785 24.0683C3.06105 23.8577 3.06265 23.6426 3.06445 23.4347L3.06565 23.2399L3.06585 23.1586C3.06665 22.9149 3.06745 22.6704 3.06245 22.4258L3.05485 22.1604C3.04925 21.9709 3.04345 21.781 3.04345 21.591C3.04345 21.3081 3.04185 21.0253 3.03305 20.7424C3.01985 20.353 3.02225 19.9567 3.02465 19.5732C3.02545 19.4033 3.02665 19.2333 3.02645 19.0632L3.02565 18.7934C3.02405 18.3277 3.02245 17.846 3.04525 17.3738C3.07385 16.771 3.06725 16.2289 3.02545 15.717C3.01065 15.5324 3.02165 15.345 3.03245 15.1638C3.03765 15.0755 3.04285 14.9873 3.04525 14.8992C3.04985 14.7428 3.04325 14.5841 3.03705 14.4304C3.03205 14.3113 3.02725 14.1923 3.02725 14.0732C3.02825 13.7378 3.02385 13.4812 3.01325 13.2405C3.00765 13.1003 3.00545 12.9599 3.00345 12.8193C3.00145 12.6787 2.99945 12.5383 2.99365 12.3977L2.99125 12.3414C2.97985 12.0842 2.96825 11.8182 2.96665 11.5567C2.96645 11.4192 2.96705 11.2816 2.96785 11.1439C2.96885 11.0062 2.96965 10.8684 2.96925 10.7305L2.96865 9.95635C2.96785 9.11005 2.96685 8.23469 2.97565 7.37416L2.97625 7.26067C2.97665 7.15322 2.97685 7.04597 2.98465 6.9395C2.99245 6.84239 3.00445 6.74568 3.01665 6.64915L3.03365 6.50933C3.04945 6.37303 3.05585 6.23614 3.06225 6.09944C3.06825 5.9723 3.07425 5.84516 3.08765 5.719C3.09425 5.67863 3.10145 5.63651 3.11125 5.59673H3.12665C3.14025 5.59673 3.15465 5.59654 3.16905 5.59654C3.23125 5.59654 3.29385 5.60141 3.35625 5.60648L3.39425 5.60921L3.44485 5.61311C3.51225 5.61799 3.57925 5.62306 3.64665 5.63008L3.69485 5.63807C3.78005 5.65231 3.86805 5.66713 3.95645 5.66908L3.98565 5.66947C4.04725 5.66947 4.10845 5.66479 4.17005 5.65991L4.22805 5.65562C4.26305 5.65348 4.29825 5.65231 4.33345 5.65231C4.37485 5.65231 4.41625 5.65387 4.45725 5.6564L4.48345 5.65738L4.51865 5.6564C4.53565 5.7149 4.54585 5.77711 4.55645 5.83912L4.56645 5.89684C4.52945 5.96509 4.50725 6.02846 4.50185 6.10666L4.49845 6.1636C4.48345 6.41222 4.46765 6.66904 4.47005 6.92176C4.47165 7.17038 4.47825 7.41823 4.48785 7.66588C4.49385 7.8172 4.48925 7.97144 4.48485 8.12042C4.48185 8.22572 4.47865 8.33103 4.47905 8.43633L4.48065 8.55469C4.48225 8.64692 4.48385 8.73897 4.47985 8.83042C4.47405 8.96439 4.46845 9.09816 4.46605 9.23212C4.46405 9.34951 4.47005 9.4669 4.47585 9.5841C4.48265 9.71982 4.48965 9.86002 4.48385 9.99827C4.47825 10.1313 4.47405 10.2645 4.47245 10.3982C4.47145 10.4827 4.47545 10.5673 4.47925 10.6519C4.48185 10.7048 4.48425 10.7576 4.48545 10.8101C4.49165 11.0283 4.48785 11.2498 4.48425 11.4643L4.48225 11.5797C4.47745 11.8504 4.47325 12.1214 4.47085 12.3923L4.46985 12.6686C4.46925 12.8529 4.46865 13.0368 4.46605 13.2208C4.46465 13.3181 4.46105 13.4155 4.45725 13.5126C4.45065 13.6797 4.44385 13.8526 4.45125 14.0231C4.47805 14.6176 4.47445 15.2102 4.46845 15.6599C4.46705 15.7675 4.45945 15.8754 4.45185 15.983L4.44625 16.0637C4.43805 16.1993 4.43165 16.3354 4.42665 16.4709L4.42085 16.6462C4.41425 16.8519 4.40745 17.0645 4.38825 17.2729C4.37445 17.418 4.36385 17.5639 4.35805 17.7096C4.35525 17.7745 4.35405 17.8396 4.35285 17.9047C4.35145 17.9699 4.35025 18.035 4.34745 18.0999C4.33705 18.3096 4.32805 18.5198 4.31885 18.7298L4.30985 18.938C4.28865 19.4123 4.28345 19.9345 4.29345 20.5347C4.29685 20.7225 4.30805 20.9095 4.31925 21.0967C4.32425 21.1809 4.32925 21.2654 4.33345 21.3496C4.34225 21.5146 4.34945 21.6792 4.35645 21.8435L4.37105 22.1751C4.37665 22.2909 4.38485 22.4065 4.39325 22.5221C4.40345 22.6645 4.41365 22.807 4.41845 22.95C4.42745 23.2177 4.44145 23.4845 4.45785 23.7524C4.46605 23.8852 4.47325 24.0176 4.47745 24.1512L4.48065 24.2772C4.48285 24.3606 4.48465 24.4443 4.48965 24.5281C4.49445 24.6159 4.50005 24.7036 4.50585 24.7916C4.51685 24.9587 4.52785 25.126 4.53205 25.2937C4.53385 25.3672 4.53805 25.4403 4.54205 25.5136C4.54585 25.5803 4.54985 25.6466 4.55165 25.7135C4.55585 25.86 4.55745 26.0058 4.55425 26.1523C4.55085 26.2855 4.55085 26.4177 4.55165 26.5507C4.55225 26.5801 4.55445 26.6093 4.55685 26.6382C4.55865 26.6638 4.56085 26.6893 4.56145 26.7148L4.56265 26.7595C4.56385 26.8338 4.56505 26.904 4.60345 26.9763C4.60845 26.9859 4.61485 26.9947 4.62145 27.0034C4.61945 27.0329 4.62245 27.0625 4.63025 27.0906C4.63685 27.1156 4.64545 27.1403 4.65405 27.1649C4.66045 27.1836 4.66705 27.2023 4.67265 27.2213L4.64105 27.233ZM3.64245 39.429C3.60585 39.429 3.56905 39.4273 3.53185 39.424L3.52925 39.4257L3.52945 39.424L3.52425 39.423C3.51205 39.4208 3.49925 39.4185 3.48725 39.416C3.47785 39.3795 3.47025 39.3407 3.46265 39.3019C3.45785 39.2767 3.45285 39.2518 3.44705 39.227L3.42625 39.1416C3.41085 39.0796 3.39545 39.0176 3.38425 38.9546C3.35965 38.7504 3.36145 38.5404 3.36325 38.3374C3.36385 38.2622 3.36445 38.1867 3.36385 38.1114C3.36165 37.8146 3.36545 37.5178 3.36905 37.2212L3.37045 37.122C3.37325 36.8901 3.37345 36.6581 3.37365 36.4262C3.37385 35.9953 3.37425 35.5497 3.39245 35.1121L3.39645 35.0103C3.40225 34.8746 3.40785 34.7387 3.40705 34.603C3.40705 34.4326 3.40705 34.2621 3.40545 34.0917C3.40425 33.9035 3.39705 33.7161 3.38985 33.5287C3.38445 33.3842 3.37905 33.2397 3.37605 33.095C3.37025 32.8002 3.37625 32.5013 3.38225 32.2121L3.38425 32.1121C3.38805 31.9159 3.38785 31.7199 3.38785 31.5237C3.38785 31.3835 3.38765 31.2437 3.38905 31.1035C3.39405 30.6039 3.39905 30.0878 3.39245 29.5802C3.38925 29.3858 3.39445 29.1913 3.39965 28.9967L3.40385 28.8251C3.40965 28.5592 3.41865 28.2945 3.43005 28.0286H3.44245C3.53305 28.0286 3.62445 28.0178 3.69465 28.0083L3.68965 28.0307C3.68305 28.0966 3.67905 28.1631 3.67505 28.229L3.67265 28.2704L3.66245 28.4328C3.64585 28.6955 3.62925 28.9573 3.62105 29.2208C3.61445 29.4125 3.62205 29.6077 3.62925 29.7962C3.63405 29.9158 3.63865 30.0351 3.63985 30.1548C3.64225 30.4758 3.64645 30.796 3.65305 31.117C3.66025 31.4389 3.66845 31.7599 3.68245 32.0809C3.68945 32.2421 3.68725 32.4055 3.68485 32.5635C3.68265 32.7169 3.68045 32.8704 3.68645 33.0241C3.68985 33.1167 3.69785 33.2093 3.70585 33.3019C3.71125 33.3653 3.71665 33.4291 3.72085 33.4927C3.72965 33.6327 3.73565 33.7727 3.74165 33.9127L3.74525 33.9969C3.75825 34.3076 3.77145 34.6289 3.76405 34.9472C3.76285 35.008 3.75945 35.0688 3.75625 35.1299C3.75125 35.2254 3.74605 35.3216 3.74865 35.4173C3.75005 35.4869 3.75245 35.5567 3.75465 35.6265C3.75745 35.7112 3.76025 35.7956 3.76165 35.88C3.76725 36.2028 3.76725 36.5247 3.76665 36.8472C3.76605 37.0276 3.77065 37.2076 3.77505 37.3878C3.77825 37.5178 3.78145 37.6481 3.78285 37.7784L3.78485 38.0077C3.78645 38.2257 3.78785 38.4513 3.80245 38.6722C3.81065 38.7912 3.81385 38.9088 3.81385 39.0275C3.81385 39.0585 3.81565 39.0901 3.81745 39.1215C3.82005 39.1675 3.82245 39.214 3.81965 39.2592C3.81325 39.3089 3.80885 39.3627 3.82125 39.4207C3.76305 39.4248 3.70305 39.429 3.64245 39.429V39.429ZM3.52765 5.13887L3.52705 5.13439C3.50845 4.88167 3.49885 4.66112 3.50425 4.43882L3.50645 4.37096L3.50845 4.3033C3.54585 4.31656 3.58685 4.32358 3.62945 4.32923C3.62765 4.35907 3.62845 4.39027 3.63165 4.42225C3.64245 4.52423 3.65565 4.60223 3.67425 4.67497L3.68165 4.70051L3.69785 4.81225L3.71185 4.90741C3.72245 4.97585 3.73545 5.04371 3.75365 5.11079L3.76265 5.14199C3.70985 5.13458 3.67345 5.13302 3.63705 5.13302C3.60045 5.13302 3.56385 5.13458 3.52745 5.13692L3.52765 5.13887ZM2.97165 2.31976C2.93805 2.44105 2.92065 2.56839 2.90385 2.69143C2.87885 2.86225 2.87265 2.99543 2.88405 3.12355L2.88705 3.15514L2.88925 3.18108C2.85725 3.15144 2.82525 3.12082 2.79545 3.08787C2.76865 3.04848 2.74425 3.00791 2.72305 2.96404C2.70425 2.91022 2.69045 2.85523 2.68065 2.79966C2.67105 2.67993 2.67245 2.56234 2.68485 2.44027C2.70865 2.31294 2.73585 2.21114 2.77065 2.11969C2.82465 2.00893 2.89165 1.9009 2.97525 1.78955C3.06905 1.6823 3.18245 1.55809 3.31085 1.44967C3.35345 1.41925 3.39945 1.39292 3.45485 1.36718C3.50625 1.34885 3.55765 1.3315 3.61225 1.32019C3.69365 1.31083 3.77605 1.30342 3.85865 1.29718C3.88325 1.29796 3.89305 1.30108 3.90265 1.3042C3.85945 1.31239 3.81765 1.32818 3.76945 1.34905C3.72565 1.36757 3.68385 1.39487 3.64425 1.42081C3.54585 1.48419 3.47785 1.53781 3.42145 1.59416L3.38625 1.62829C3.32685 1.68542 3.26565 1.74471 3.21385 1.80847C3.17065 1.86249 3.13565 1.91143 3.10565 1.97558C3.08125 2.02726 3.05905 2.07991 3.03785 2.13236C3.01265 2.19398 2.98965 2.256 2.97165 2.31976V2.31976ZM37.904 16.7445C37.8944 16.711 37.8754 16.6798 37.8494 16.6544C37.8534 16.6152 37.8442 16.5754 37.8236 16.5409C37.795 16.4939 37.7552 16.4711 37.7042 16.4516L37.4614 16.3586L37.2188 16.266L37.1632 16.2418C37.1114 16.219 37.059 16.196 37.0054 16.1759C36.9596 16.1581 36.9132 16.1417 36.8666 16.1256L36.762 16.0883C36.6624 16.0448 36.5654 15.9953 36.4684 15.9456C36.4088 15.9152 36.3494 15.8849 36.2892 15.8557C36.102 15.7664 35.914 15.6821 35.7236 15.5993C35.544 15.5218 35.365 15.4423 35.187 15.3602C34.9852 15.2678 34.775 15.1835 34.5896 15.1092C34.597 15.1143 34.6048 15.1184 34.6128 15.1223L34.5174 15.079C34.325 14.9983 34.1328 14.9175 33.9382 14.8415C33.8608 14.8113 33.7788 14.7902 33.6994 14.7697C33.6652 14.761 33.6312 14.7522 33.5974 14.7426C33.5 14.7157 33.3958 14.68 33.2692 14.6305C33.0894 14.5533 32.9114 14.472 32.7334 14.3901C32.61 14.3339 32.5048 14.2892 32.3932 14.2543C32.304 14.2265 32.2142 14.1994 32.1234 14.1746C32.08 14.1627 32.0374 14.149 31.9946 14.1356C31.947 14.1208 31.8996 14.1058 31.8514 14.0927C31.759 14.0687 31.6658 14.048 31.5726 14.0297C31.4008 13.9956 31.2134 13.9384 30.983 13.8497C30.846 13.7922 30.7118 13.7368 30.5744 13.6904C30.4316 13.6411 30.288 13.5978 30.1478 13.5621C29.9966 13.5239 29.8438 13.488 29.6918 13.4529L29.6352 13.4398C29.5042 13.4092 29.369 13.3776 29.241 13.3295C28.9292 13.2142 28.607 13.0953 28.28 13.0069L28.1648 12.9759C28.049 12.9449 27.9336 12.9141 27.8202 12.8771L27.7576 12.8568C27.6118 12.8094 27.4662 12.7622 27.3226 12.7113C27.1492 12.6509 26.9784 12.5846 26.8074 12.5185L26.74 12.4923L26.598 12.4368C26.4658 12.3847 26.3292 12.3305 26.1908 12.2899C25.9014 12.2055 25.595 12.1797 25.2986 12.1548C25.1906 12.1458 25.0828 12.1366 24.9754 12.1249C24.7114 12.0748 24.4978 12.0247 24.3034 11.9672C24.1818 11.9305 24.0608 11.8941 23.9398 11.8551C23.8288 11.8174 23.7186 11.7761 23.609 11.7347L23.2332 11.5784L22.8584 11.4224L22.8808 11.4356C22.7146 11.3637 22.547 11.2966 22.3794 11.2305C22.2694 11.1868 22.1574 11.1484 22.0458 11.11L21.9284 11.0694C21.618 10.96 21.2868 10.8444 20.9486 10.7397L20.632 10.641C20.4268 10.5768 20.2216 10.5125 20.0156 10.452C19.7062 10.3614 19.3862 10.2873 19.0766 10.2157L19.0006 10.198C18.6626 10.1203 18.335 10.034 18.0268 9.94055C17.777 9.86626 17.529 9.77091 17.2888 9.67887L17.0898 9.60301C16.9198 9.53886 16.7426 9.48523 16.5712 9.43336C16.4272 9.38988 16.2832 9.34639 16.1412 9.29628L15.9804 9.23914L15.6584 9.12409L15.565 9.09016C15.4518 9.04882 15.3346 9.00592 15.2168 8.97277C15.0952 8.93806 14.972 8.90725 14.849 8.87644C14.693 8.83744 14.537 8.79844 14.3836 8.75125C14.1116 8.6674 13.8202 8.57419 13.5324 8.4607C13.3582 8.38914 13.1818 8.32225 13.0058 8.25536C12.9028 8.21636 12.7998 8.17698 12.6974 8.137L12.591 8.09449C12.4808 8.04984 12.3666 8.00382 12.2518 7.96735C12.1202 7.92543 11.9796 7.88662 11.8098 7.8447L11.7422 7.82851C11.6208 7.79984 11.4992 7.77099 11.3792 7.73862C11.24 7.70176 11.1052 7.65632 10.9456 7.59938C10.6536 7.49447 10.3648 7.38449 10.0868 7.27198C9.97425 7.22518 9.86225 7.17955 9.74865 7.13665C9.62445 7.09024 9.49945 7.045 9.37445 6.99937L9.22165 6.94263C9.04485 6.87672 8.86205 6.80827 8.67645 6.75425C8.44525 6.68776 8.21185 6.62692 7.97845 6.56647L7.90665 6.54775L7.72445 6.50153C7.56265 6.46097 7.39525 6.41886 7.23365 6.36523C7.16725 6.33696 7.10145 6.30712 7.03545 6.27729C6.94865 6.23809 6.86185 6.19889 6.77385 6.16223C6.72505 6.14195 6.67685 6.12089 6.62865 6.09944C6.57085 6.0739 6.51305 6.04836 6.45425 6.02437C6.36945 5.99064 6.28445 5.9688 6.19425 5.94559L5.98705 5.89216C5.89845 5.86895 5.80985 5.84575 5.72105 5.82372C5.68325 5.81416 5.64525 5.80597 5.60745 5.79759C5.53665 5.78218 5.46605 5.76677 5.39685 5.74396C5.36445 5.69852 5.31385 5.66206 5.25545 5.64197C5.23265 5.63398 5.20965 5.62677 5.18585 5.62209C5.17425 5.49475 5.14545 5.39725 5.09405 5.30774C5.05925 5.24807 5.00925 5.18938 4.94985 5.13809C4.88165 5.0792 4.81585 5.04449 4.74865 5.03182C4.71745 5.02616 4.69045 5.02304 4.66345 5.02148L4.66285 4.93393C4.65985 4.83467 4.65705 4.73542 4.65885 4.63616L4.65965 4.58995C4.66145 4.51195 4.66285 4.43356 4.65885 4.35576C4.65685 4.30408 4.64905 4.25182 4.64125 4.19995L4.63685 4.1709C4.69365 4.16407 4.75645 4.14067 4.81145 4.10654C4.90685 4.04707 4.99585 3.97082 5.06845 3.88639C5.17085 3.76783 5.22945 3.63757 5.28545 3.50341C5.33485 3.38485 5.37045 3.25478 5.38845 3.12686C5.39985 3.04535 5.41145 2.96092 5.41225 2.87746C5.41225 2.8486 5.41045 2.81896 5.40805 2.78952C5.41225 2.75071 5.41625 2.71093 5.41945 2.67193C5.43245 2.52451 5.41365 2.3843 5.39165 2.25463L5.38625 2.22128C5.37945 2.17819 5.37245 2.13451 5.36145 2.092C5.34165 2.01888 5.31085 1.94906 5.28125 1.8814C5.23265 1.77376 5.15545 1.68543 5.08745 1.60782C5.05385 1.57038 5.01945 1.5343 4.98425 1.4992L4.93985 1.45103C4.91905 1.42802 4.89845 1.40521 4.87645 1.38376L4.84805 1.34359C4.78925 1.26188 4.73425 1.20729 4.66445 1.16127C4.62605 1.13572 4.58505 1.11349 4.54245 1.09341C4.48145 1.06591 4.42585 1.04972 4.35065 1.03744C4.30645 1.02983 4.26445 1.02399 4.22325 1.02399C4.18465 1.02399 4.14965 1.02905 4.11605 1.03997L4.07105 1.03276C4.03605 1.02789 3.98605 1.02223 3.93545 1.01989C3.91605 1.00702 3.89225 1 3.86745 1H3.85845L3.82545 1.00253C3.64665 1.01755 3.46205 1.03276 3.29165 1.0973C3.20625 1.12929 3.13665 1.16185 3.07225 1.20027C3.00605 1.23849 2.94765 1.2886 2.89105 1.33696L2.82105 1.39507C2.78985 1.42081 2.75845 1.44635 2.72885 1.47307C2.67225 1.52377 2.61925 1.57817 2.56625 1.63219C2.48465 1.71565 2.38005 1.82777 2.29285 1.95842C2.14085 2.18794 2.04165 2.47849 2.00585 2.79887C1.97205 3.10736 2.08625 3.4297 2.31105 3.66097C2.37405 3.72571 2.45005 3.79513 2.54325 3.87294C2.63785 3.95113 2.73565 4.03205 2.85505 4.08139C2.90585 4.10284 2.95565 4.12273 3.00725 4.14106C2.98645 4.22959 2.97385 4.32768 2.96745 4.43863C2.96285 4.5375 2.96665 4.63656 2.97065 4.7362L2.97145 4.76233L2.98625 5.06263L2.95565 5.06634L2.95545 5.06458C2.86125 5.07647 2.78345 5.09753 2.71085 5.16227C2.66265 5.20517 2.62625 5.26251 2.60225 5.33271C2.57425 5.41539 2.56105 5.5047 2.54825 5.59128C2.52925 5.72134 2.51905 5.84692 2.50865 5.9725C2.50125 6.0622 2.49405 6.15209 2.48365 6.24121C2.48385 6.24082 2.48405 6.24062 2.48405 6.24023C2.47745 6.28664 2.47085 6.33325 2.46505 6.37986L2.45085 6.48028C2.43385 6.59981 2.41705 6.71935 2.40365 6.83947C2.39105 6.95432 2.38825 7.07445 2.39465 7.21758C2.40805 7.51866 2.41525 7.79088 2.41665 8.04906C2.42085 8.61144 2.42245 9.17382 2.42165 9.73639L2.42125 10.0176C2.42045 10.4846 2.41965 10.9518 2.42165 11.4187C2.42305 11.6646 2.43345 11.9284 2.45505 12.2735C2.46705 12.4547 2.47445 12.6356 2.48185 12.8164C2.48605 12.92 2.49025 13.0233 2.49525 13.1269C2.50925 13.4012 2.52205 13.6701 2.52625 13.941L2.52665 13.9815C2.52805 14.1028 2.52945 14.2245 2.53685 14.3448C2.54585 14.4868 2.55005 14.6284 2.55165 14.7701C2.55245 14.9162 2.54125 15.0644 2.53025 15.2075C2.52025 15.3405 2.50985 15.4778 2.50905 15.6129C2.50845 15.7044 2.51505 15.7958 2.52165 15.8873C2.52485 15.9304 2.52805 15.9737 2.53025 16.0171C2.53925 16.1605 2.54245 16.3038 2.54585 16.4471L2.54785 16.5374C2.55305 16.7698 2.55845 17.0101 2.54905 17.2451C2.53665 17.558 2.53425 17.8698 2.53345 18.1064C2.53105 18.6504 2.53105 19.1955 2.53345 19.7395L2.53405 19.9864C2.53405 20.1981 2.53405 20.4099 2.54165 20.6215C2.55245 20.9035 2.56145 21.1862 2.56625 21.4684L2.56725 21.5873C2.56785 21.6799 2.56865 21.7724 2.57205 21.865C2.57485 21.9432 2.57865 22.0214 2.58265 22.0992L2.59085 22.2722C2.60145 22.5337 2.60225 22.8004 2.60285 23.058L2.60305 23.114C2.60385 23.2472 2.60465 23.3809 2.60465 23.5139L2.60405 23.6296C2.60325 23.7298 2.60245 23.8304 2.60705 23.93C2.61125 24.0151 2.61645 24.1003 2.62145 24.1851C2.63305 24.3787 2.64505 24.5792 2.64565 24.7765C2.64665 24.9577 2.64325 25.1385 2.64005 25.3192L2.63565 25.5907L2.63485 25.7299C2.63405 25.9577 2.63325 26.1934 2.60385 26.4231C2.57545 26.6443 2.55525 26.8816 2.54005 27.1704C2.53685 27.2261 2.53445 27.2819 2.53445 27.3377C2.53445 27.3921 2.54105 27.45 2.55405 27.5103C2.57145 27.592 2.63405 27.6659 2.67945 27.7144C2.71665 27.7542 2.76365 27.7875 2.80905 27.8195L2.84405 27.8445L2.90785 27.8891C2.94885 27.9155 2.98905 27.9369 3.03245 27.9562C3.01125 28.3784 3.00285 28.7243 3.00505 29.0441C3.00645 29.3202 3.02005 29.6001 3.03345 29.8705L3.04105 30.0289C3.07385 30.7133 3.07425 31.4161 3.07205 32.0212C3.07145 32.1161 3.06545 32.2113 3.05925 32.3069C3.05505 32.3735 3.05065 32.4408 3.04825 32.5079C3.04165 32.6791 3.03685 32.8505 3.03205 33.0225C3.02665 33.2319 3.03205 33.4455 3.03725 33.6522C3.04025 33.7674 3.04305 33.8827 3.04425 33.9977L3.04485 34.042C3.04865 34.362 3.05265 34.6927 3.04025 35.0179C3.02785 35.3465 3.02705 35.68 3.02625 36.0027C3.02545 36.5087 3.03125 37.0144 3.03685 37.5196C3.03925 37.7507 3.03925 37.9808 3.03685 38.2109C3.03525 38.431 3.05025 38.6525 3.08265 38.8877L3.08885 38.9363C3.09705 39.0022 3.10525 39.0679 3.11785 39.133C3.12365 39.165 3.13005 39.197 3.13665 39.2288C3.14585 39.2732 3.15485 39.3179 3.16205 39.3624L3.16825 39.4084C3.17385 39.4509 3.17965 39.494 3.18805 39.5363C3.21385 39.6582 3.31345 39.7321 3.39265 39.7726C3.51885 39.8374 3.65665 39.8709 3.82645 39.8779C3.84505 39.8787 3.86365 39.8791 3.88205 39.8791C3.99665 39.8791 4.11805 39.8662 4.26405 39.8389C4.38065 39.8171 4.50545 39.7644 4.60645 39.6942C4.71605 39.6182 4.78945 39.5148 4.83125 39.3785C4.85565 39.3001 4.86605 39.2136 4.87585 39.1297L4.88185 39.0804C4.90185 38.9236 4.90005 38.7674 4.89585 38.6356L4.89285 38.5129C4.89025 38.3905 4.88745 38.2678 4.88185 38.1448C4.87825 38.0652 4.87385 37.9858 4.86925 37.9061C4.86485 37.8254 4.86025 37.7446 4.85665 37.6635C4.85245 37.5797 4.84585 37.4956 4.83905 37.4118C4.83345 37.3431 4.82805 37.2743 4.82385 37.2057C4.81645 37.0721 4.81185 36.9387 4.80705 36.8051L4.80425 36.7252C4.80165 36.6462 4.79625 36.5668 4.79085 36.4879C4.78585 36.4147 4.78085 36.3418 4.77825 36.2687C4.77245 36.1037 4.76425 35.9397 4.75365 35.7747C4.74225 35.6074 4.73645 35.4403 4.73065 35.2722C4.72725 35.1771 4.72205 35.0825 4.71685 34.9877L4.70705 34.7974C4.69165 34.4626 4.69525 34.1215 4.69965 33.8279C4.70865 33.1296 4.73985 32.4434 4.76585 31.9233C4.77405 31.7663 4.78125 31.6091 4.78825 31.4518C4.79565 31.2946 4.80265 31.1378 4.81085 30.9809C4.81725 30.8529 4.82185 30.7246 4.82625 30.5967L4.82965 30.5006C4.83225 30.436 4.83665 30.3717 4.84105 30.3073C4.84665 30.2268 4.85225 30.1461 4.85425 30.0655C4.85805 29.929 4.85065 29.7902 4.84345 29.656C4.83845 29.5615 4.83345 29.4665 4.83205 29.3715C4.82885 29.1325 4.82725 28.8936 4.82625 28.6545L4.82645 28.4899C4.82685 28.3129 4.82725 28.1298 4.81665 27.9496L4.81465 27.9125C4.81065 27.8351 4.80665 27.755 4.78625 27.6807C4.80405 27.675 4.82365 27.6662 4.84165 27.6549C4.87085 27.6362 4.89705 27.614 4.92385 27.5916L4.98565 27.5457C5.00165 27.5331 5.01365 27.5153 5.02525 27.4984L5.03765 27.4808C5.05625 27.4576 5.07385 27.4346 5.08525 27.4079C5.10325 27.3681 5.12045 27.3297 5.13105 27.2872C5.14005 27.2546 5.15065 27.223 5.16365 27.192C5.17525 27.1633 5.18305 27.1323 5.18745 27.0967C5.22025 27.0914 5.25445 27.0816 5.28885 27.0721C5.40885 27.0403 5.52985 27.014 5.65145 26.9884C5.80365 26.957 5.95005 26.9015 6.09165 26.8476C6.17385 26.8162 6.25605 26.785 6.33965 26.7583C6.43105 26.7287 6.52265 26.7002 6.61425 26.6716C6.75565 26.6275 6.89725 26.5832 7.03765 26.536C7.12365 26.507 7.21005 26.4797 7.29645 26.4522L7.41665 26.4142C7.54325 26.3726 7.66705 26.3192 7.78685 26.2675C7.87845 26.2324 7.97085 26.2051 8.06465 26.177L8.12985 26.1575L8.32585 26.099L8.52205 26.0405C8.57505 26.0249 8.62925 26.0132 8.68325 26.0017C8.74865 25.9877 8.81405 25.9737 8.87745 25.9528C8.96885 25.9235 9.05685 25.8832 9.14205 25.844C9.17885 25.8272 9.21565 25.8102 9.25265 25.7943C9.37205 25.7478 9.49825 25.7112 9.62025 25.6759C9.69605 25.6537 9.77225 25.6316 9.84725 25.607C10.0548 25.54 10.2624 25.4748 10.4722 25.416L10.6394 25.3705L10.8064 25.3251C10.8814 25.3042 10.9552 25.2763 11.0286 25.2484L11.1204 25.2143C11.229 25.1743 11.3392 25.1379 11.4496 25.1012C11.5052 25.0821 11.5608 25.062 11.6156 25.0398C11.6596 25.022 11.7028 25.0024 11.746 24.9825L11.7848 24.9649C11.9168 24.9179 12.0574 24.8855 12.193 24.8542L12.2616 24.8384C12.4124 24.8035 12.5594 24.7508 12.7016 24.6995L12.7544 24.6806C12.8352 24.6517 12.9168 24.626 12.9984 24.6001C13.0862 24.5724 13.1738 24.5447 13.2602 24.5133C13.3574 24.4782 13.4522 24.4351 13.547 24.3922C13.5782 24.378 13.6086 24.3618 13.639 24.3456C13.6662 24.3312 13.6934 24.3169 13.7212 24.3037C13.8086 24.2729 13.9008 24.2508 13.99 24.2298C14.033 24.2194 14.076 24.2091 14.1188 24.198C14.2846 24.1549 14.4498 24.1095 14.614 24.0601L14.789 24.0086C14.8752 23.9835 14.9616 23.9583 15.0478 23.9316C15.0958 23.9172 15.1426 23.899 15.1894 23.8811L15.2572 23.8554C15.3372 23.8251 15.4164 23.7988 15.4988 23.7756C15.586 23.7516 15.674 23.7306 15.7618 23.7095C15.837 23.6916 15.912 23.6736 15.9866 23.6539C16.136 23.614 16.2834 23.5687 16.4312 23.5237C16.5054 23.5007 16.5626 23.4817 16.6198 23.4628L16.6902 23.4394C16.7644 23.4164 16.8404 23.3989 16.9154 23.3821C17.0796 23.3454 17.249 23.3072 17.4116 23.2577C17.6192 23.1949 17.8274 23.1344 18.0366 23.0771C18.1854 23.0358 18.3404 23.0116 18.4902 22.9884L18.6328 22.9654C18.8184 22.9342 19.0134 22.885 19.2466 22.8107C19.403 22.7614 19.5554 22.6932 19.7026 22.6273C19.7558 22.6035 19.8088 22.5797 19.8622 22.5569C20.0056 22.5009 20.1252 22.4627 20.2384 22.4373L20.323 22.4184C20.4498 22.3901 20.576 22.3621 20.701 22.3273C20.8618 22.2835 21.0088 22.2371 21.1504 22.1854C21.2976 22.1316 21.4446 22.0768 21.5892 22.0173L21.5754 22.0206C21.7108 21.9697 21.845 21.9161 21.9806 21.8669C22.1342 21.8108 22.2952 21.7634 22.434 21.7234L22.4964 21.7053C22.781 21.623 23.0754 21.5378 23.3606 21.436L23.4442 21.4058C23.5642 21.3625 23.6882 21.3174 23.8132 21.2837C23.953 21.2467 24.1076 21.2112 24.2852 21.1755C24.4444 21.1437 24.6136 21.1082 24.7814 21.0583C24.8876 21.0273 24.9924 20.9898 25.097 20.9524L25.2006 20.9157C25.2986 20.8822 25.4024 20.8451 25.5008 20.7968C25.533 20.781 25.5644 20.7629 25.5958 20.7449C25.6302 20.7248 25.665 20.7049 25.7008 20.6878C25.8046 20.6519 25.9152 20.6324 26.0222 20.6135L26.0778 20.6035C26.2092 20.5794 26.382 20.5454 26.5536 20.4975C26.8234 20.4212 27.1066 20.3294 27.419 20.2171L27.4834 20.1937C27.589 20.155 27.6946 20.1168 27.8012 20.0815C27.8518 20.0648 27.902 20.0466 27.952 20.0283C28.0254 20.0012 28.099 19.9743 28.1738 19.9526C28.2056 19.9431 28.2378 19.9349 28.2702 19.9265C28.301 19.9185 28.3318 19.9105 28.3626 19.9015C28.4264 19.8817 28.4902 19.8579 28.5522 19.8331C28.6378 19.7996 28.7222 19.7631 28.8064 19.7266L28.9446 19.6674C29.0888 19.6153 29.243 19.5925 29.392 19.5706C29.4676 19.5597 29.5432 19.5484 29.6182 19.5336C29.7878 19.4993 29.9674 19.4591 30.135 19.3807L30.2652 19.3208C30.3304 19.2908 30.3958 19.2608 30.461 19.2315C30.5262 19.2072 30.5936 19.1869 30.6612 19.167L30.7624 19.1362L30.8758 19.0993C30.9596 19.0722 31.0432 19.0447 31.1282 19.0223C31.2004 19.003 31.2734 18.9878 31.346 18.9724C31.4 18.9611 31.4538 18.9499 31.5074 18.9369C31.63 18.9086 31.7594 18.8714 31.9144 18.8199C31.9718 18.8008 32.0284 18.7793 32.0848 18.7577C32.1448 18.7349 32.2046 18.712 32.2658 18.6924C32.3844 18.6539 32.5046 18.6221 32.6332 18.5952L32.7156 18.5783C32.8094 18.5594 32.9028 18.5404 32.9952 18.5139C33.1044 18.4825 33.2188 18.4412 33.3444 18.388C33.492 18.3318 33.6616 18.2885 33.848 18.2598L34.0218 18.2382C34.1246 18.2259 34.2272 18.2132 34.33 18.1984C34.4754 18.1779 34.6288 18.1465 34.7984 18.1029C34.9724 18.058 35.1264 18.0075 35.2694 17.9482C35.3508 17.9145 35.4302 17.8774 35.51 17.84C35.5678 17.8129 35.6256 17.786 35.6844 17.7603V17.7603L35.7058 17.7487L35.7066 17.7507C35.7746 17.724 35.843 17.6973 35.9092 17.6655L35.9694 17.6362C36.0014 17.6208 36.0334 17.6052 36.066 17.5906C36.1438 17.5627 36.2244 17.5415 36.305 17.5204C36.3468 17.5093 36.3886 17.4982 36.4302 17.4863C36.502 17.466 36.5734 17.4447 36.6448 17.4233L36.7938 17.3796C36.9404 17.3353 37.0804 17.2854 37.2098 17.2312C37.2504 17.2137 37.2898 17.1934 37.3292 17.1731L37.3774 17.1483C37.4322 17.1222 37.4876 17.0967 37.5432 17.0711C37.6134 17.0448 37.6844 17.0218 37.7554 16.9988C37.8712 16.9625 37.935 16.8533 37.904 16.7445V16.7445Z" fill="#F1682B"/>
</g>
</svg>
