<svg width="57" height="57" viewBox="0 0 57 57" fill="none" xmlns="http://www.w3.org/2000/svg">
<path fill-rule="evenodd" clip-rule="evenodd" d="M28.4522 56.3949C44.1407 56.3949 56.9044 43.7454 56.9044 28.1974C56.9044 12.6493 44.1407 0 28.4522 0C12.7636 0 0 12.6493 0 28.1974C0 43.7454 12.7636 56.3949 28.4522 56.3949ZM28.4522 3.6514C42.1094 3.6514 53.2199 14.6632 53.2199 28.1974C53.2199 41.7317 42.1094 52.7433 28.4522 52.7433C14.7951 52.7433 3.6844 41.7317 3.6844 28.1974C3.6844 14.6632 14.7951 3.6514 28.4522 3.6514ZM14.6356 31.7004H33.3332C33.3332 31.7004 28.8007 36.1929 25.9931 38.9742C24.7945 40.1627 24.7945 42.0895 25.9931 43.278C26.1909 43.474 26.391 43.6717 26.5888 43.8677C27.7874 45.0563 29.7316 45.0563 30.931 43.8677C34.6056 40.2266 41.8978 32.999 44.4402 30.4789C45.0162 29.9087 45.3397 29.1346 45.3397 28.3276V28.0671C45.3397 27.2608 45.0162 26.4867 44.4402 25.9158C41.8978 23.3962 34.6056 16.1688 30.931 12.5275C29.7316 11.339 27.7874 11.339 26.5888 12.5275C26.391 12.7229 26.1909 12.922 25.9931 13.1172C24.7945 14.3059 24.7945 16.2321 25.9931 17.4206C28.8007 20.2024 33.3332 24.6949 33.3332 24.6949H14.6356C12.9396 24.6949 11.5652 26.0576 11.5652 27.7379V28.6575C11.5652 30.3384 12.9396 31.7004 14.6356 31.7004Z" fill="#F1682B"/>
</svg>
