<svg width="57" height="57" viewBox="0 0 57 57" fill="none" xmlns="http://www.w3.org/2000/svg">
<rect width="57" height="57" fill="#F2F2F2"/>
<rect width="1440" height="1024" transform="translate(-44 -517)" fill="white"/>
<rect x="-44" y="-517" width="1440" height="1002" fill="#2B5F7B"/>
<rect x="-15" y="-485" width="1380" height="970" fill="white"/>
<path fill-rule="evenodd" clip-rule="evenodd" d="M28.4522 56.3949C12.7637 56.3949 -2.67029e-05 43.7454 -2.67029e-05 28.1974C-2.67029e-05 12.6493 12.7637 0 28.4522 0C44.1408 0 56.9044 12.6493 56.9044 28.1974C56.9044 43.7454 44.1408 56.3949 28.4522 56.3949ZM28.4522 3.6514C14.795 3.6514 3.68449 14.6632 3.68449 28.1974C3.68449 41.7317 14.795 52.7433 28.4522 52.7433C42.1093 52.7433 53.22 41.7317 53.22 28.1974C53.22 14.6632 42.1093 3.6514 28.4522 3.6514ZM42.2688 31.7004H23.5712C23.5712 31.7004 28.1037 36.1929 30.9113 38.9742C32.11 40.1627 32.11 42.0895 30.9113 43.278C30.7136 43.474 30.5134 43.6717 30.3157 43.8677C29.117 45.0563 27.1728 45.0563 25.9734 43.8677C22.2988 40.2266 15.0066 32.999 12.4643 30.4789C11.8883 29.9087 11.5647 29.1346 11.5647 28.3276V28.0671C11.5647 27.2608 11.8883 26.4867 12.4643 25.9158C15.0066 23.3962 22.2988 16.1688 25.9734 12.5275C27.1728 11.339 29.117 11.339 30.3157 12.5275C30.5134 12.7229 30.7136 12.922 30.9113 13.1172C32.11 14.3059 32.11 16.2321 30.9113 17.4206C28.1037 20.2024 23.5712 24.6949 23.5712 24.6949H42.2688C43.9649 24.6949 45.3392 26.0576 45.3392 27.7379V28.6575C45.3392 30.3384 43.9649 31.7004 42.2688 31.7004Z" fill="#F1682B"/>
</svg>
